<svg xmlns="http://www.w3.org/2000/svg" xmlns:xlink="http://www.w3.org/1999/xlink" viewBox="0 0 140 140"><defs><style>.cls-1{fill:url(#radial-gradient);}</style><radialGradient id="radial-gradient" cx="70" cy="70" r="70" gradientUnits="userSpaceOnUse"><stop offset="0" stop-color="#f99"/><stop offset="0.59" stop-color="#ff8c8c"/><stop offset="1" stop-color="#ff6969"/></radialGradient></defs><g id="Layer_2" data-name="Layer 2"><g id="Layer_1-2" data-name="Layer 1"><path class="cls-1" d="M140,70A70,70,0,1,1,70,0,70,70,0,0,1,140,70ZM71,28Q52.29,28,40.67,42.3T29.05,76.18a53.19,53.19,0,0,0,10,31.94Q49.07,122,67.43,122q15.91,0,26.9-10.56t15-23l-3.41-1.18q-6,9.85-13,15.21t-17.29,5.35q-12.69,0-22-10.32T43.41,64.56h62q0-17.48-10.35-27A34.52,34.52,0,0,0,71,28Zm-5.67,7.13q11.23,0,16,8.59Q83.93,48.55,85,58.31H43.8A38.71,38.71,0,0,1,48.29,45Q54.16,35.17,65.28,35.17Z"/></g></g></svg>