<svg xmlns="http://www.w3.org/2000/svg" xmlns:xlink="http://www.w3.org/1999/xlink" viewBox="0 0 447.99 155.19"><defs><style>.cls-1{fill:url(#radial-gradient);}.cls-2{fill:#666;}</style><radialGradient id="radial-gradient" cx="70" cy="85.19" r="70" gradientUnits="userSpaceOnUse"><stop offset="0" stop-color="#f99"/><stop offset="0.59" stop-color="#ff8c8c"/><stop offset="1" stop-color="#ff6969"/></radialGradient></defs><g id="Layer_2" data-name="Layer 2"><g id="Layer_1-2" data-name="Layer 1"><path class="cls-1" d="M140,85.19a70,70,0,1,1-70-70A70,70,0,0,1,140,85.19Zm-69-42q-18.66,0-30.28,14.26T29.05,91.38a53.16,53.16,0,0,0,10,31.93q10,13.88,28.37,13.87,15.91,0,26.9-10.57t15-23l-3.41-1.17q-6,9.84-13,15.2T75.63,123q-12.69,0-22-10.33T43.41,79.76h62q0-17.49-10.35-27A34.56,34.56,0,0,0,71,43.23Zm-5.67,7.13q11.23,0,16,8.59,2.63,4.8,3.71,14.56H43.8a38.7,38.7,0,0,1,4.49-13.29Q54.16,50.36,65.28,50.36Z"/><path class="cls-2" d="M187.88,46.74v7H168l-.2,56.25q0,7.42,1.27,11.23,2.34,6.73,9.18,6.74a11,11,0,0,0,6.1-1.66,31.92,31.92,0,0,0,5.91-5.28l2.54,2.15-2.15,2.93q-5.07,6.84-10.74,9.67a24.4,24.4,0,0,1-10.94,2.83q-11.52,0-15.62-10.25-2.25-5.56-2.25-15.43V53.77H140.42a2.74,2.74,0,0,1-.73-.59,1.13,1.13,0,0,1-.25-.78,2.34,2.34,0,0,1,.44-1.51,28.44,28.44,0,0,1,2.78-2.49,83,83,0,0,0,9.72-9q3-3.47,14-18.31a3.25,3.25,0,0,1,1.52.2c.16.13.24.62.24,1.46v24Z"/><path class="cls-2" d="M265.15,94q9-5.85,35.84-15.92v-8.3q0-10-1.95-13.86-3.33-6.54-13.77-6.55A19,19,0,0,0,275.8,52q-4.5,2.64-4.5,7.23a25.85,25.85,0,0,0,.49,4,27.5,27.5,0,0,1,.49,3.57c0,3.65-1.21,6.19-3.61,7.62a9.18,9.18,0,0,1-4.89,1.27,8.17,8.17,0,0,1-6.73-2.88,9.87,9.87,0,0,1-2.35-6.4q0-6.84,8.45-14.31t24.75-7.47q18.94,0,25.69,12.31,3.62,6.73,3.61,19.62v39.16q0,5.67.78,7.82a5.11,5.11,0,0,0,5.28,3.81,8.75,8.75,0,0,0,3.71-.69,37.58,37.58,0,0,0,5.08-3.32v5.08a32.21,32.21,0,0,1-6.74,6.25,19.61,19.61,0,0,1-11.14,3.71q-6.63,0-9.61-4.3a19.26,19.26,0,0,1-3.28-10.25,91.3,91.3,0,0,1-12.69,9.57q-8.89,5.28-16.9,5.27a20.29,20.29,0,0,1-14.55-5.9,19.9,19.9,0,0,1-6.15-15Q251,103.52,265.15,94ZM301,83a89.28,89.28,0,0,0-18.55,8.2q-14.07,8.7-14.07,19.73,0,8.88,5.86,13.08a14.19,14.19,0,0,0,8.5,2.74,23.32,23.32,0,0,0,12.35-3.62Q301,119.54,301,114Z"/><path class="cls-2" d="M356.54,134.38q9.07-.88,12.3-3.67t3.22-10.89V24.41c0-4.29-.35-7.25-1.07-8.88q-2-4.11-7.91-4.1a16.36,16.36,0,0,0-3,.29c-1.07.19-2.42.49-4.05.88V9.38Q369.23,5.86,387.79,0a.76.76,0,0,1,.83.59,14.21,14.21,0,0,1,.14,2.53V120.21q0,8.51,2.93,11t12.11,3.18v2.73H356.54Z"/><path class="cls-2" d="M429,137.52a10.83,10.83,0,0,1-3.22-7.87,10.56,10.56,0,0,1,3.27-7.81,10.79,10.79,0,0,1,7.86-3.22,11,11,0,0,1,11,11,10.91,10.91,0,0,1-3.18,7.87,10.5,10.5,0,0,1-7.86,3.27A10.69,10.69,0,0,1,429,137.52Z"/></g></g></svg>